<svg width="200" height="200" xmlns="http://www.w3.org/2000/svg">
      <rect width="200" height="200" fill="#f1f8e9"/>
      <circle cx="100" cy="100" r="80" fill="transparent" stroke="#8bc34a" stroke-width="5"/>
      <path d="M40,100 Q60,70 80,90 Q100,60 120,90 Q140,70 160,100" fill="transparent" stroke="#7cb342" stroke-width="3"/>
      <path d="M40,110 Q70,90 100,110 Q130,90 160,110" fill="transparent" stroke="#7cb342" stroke-width="3"/>
      <path d="M50,80 L55,70 L60,80 M70,70 L75,60 L80,70 M90,65 L95,55 L100,65 M110,65 L115,55 L120,65 M130,70 L135,60 L140,70 M150,80 L155,70 L160,80" fill="transparent" stroke="#8bc34a" stroke-width="2"/>
      <circle cx="55" cy="65" r="5" fill="#ffeb3b"/>
      <circle cx="95" cy="50" r="5" fill="#ffeb3b"/>
      <circle cx="135" cy="65" r="5" fill="#ffeb3b"/>
      <circle cx="75" cy="85" r="5" fill="#f44336"/>
      <circle cx="115" cy="85" r="5" fill="#f44336"/>
      <circle cx="155" cy="95" r="5" fill="#ba68c8"/>
      <circle cx="45" cy="95" r="5" fill="#ba68c8"/>
      <text x="100" y="150" font-family="Arial" font-size="12" text-anchor="middle" fill="#33691e">CORONA GRAMINEA</text>
    </svg>