<svg width="200" height="200" xmlns="http://www.w3.org/2000/svg">
      <rect width="200" height="200" fill="#f5f5f5"/>
      <rect x="20" y="120" width="160" height="60" fill="#795548"/>
      <rect x="40" y="20" width="120" height="100" fill="#b71c1c"/>
      <text x="100" y="80" font-family="Arial" font-size="40" text-anchor="middle" fill="#f5f5f5">SPQR</text>
      <path d="M40,20 L100,5 L160,20" fill="transparent" stroke="#ffd600" stroke-width="3"/>
      <path d="M30,140 L50,140 M60,140 L80,140 M90,140 L110,140 M120,140 L140,140 M150,140 L170,140" fill="transparent" stroke="#ffd600" stroke-width="5"/>
      <path d="M30,160 L50,160 M60,160 L80,160 M90,160 L110,160 M120,160 L140,160 M150,160 L170,160" fill="transparent" stroke="#ffd600" stroke-width="5"/>
    </svg>