<svg width="200" height="200" xmlns="http://www.w3.org/2000/svg">
      <rect width="200" height="200" fill="#e0e0e0"/>
      <path d="M20,180 L20,80 L60,40 L140,40 L180,80 L180,180 Z" fill="#f5f5f5"/>
      <rect x="40" y="180" width="20" height="-80" fill="#bdbdbd"/>
      <rect x="70" y="180" width="20" height="-100" fill="#bdbdbd"/>
      <rect x="100" y="180" width="20" height="-90" fill="#bdbdbd"/>
      <rect x="130" y="180" width="20" height="-100" fill="#bdbdbd"/>
      <rect x="160" y="180" width="20" height="-80" fill="#bdbdbd"/>
      <path d="M20,80 L60,40 L140,40 L180,80" fill="transparent" stroke="#9e9e9e" stroke-width="3"/>
      <circle cx="50" cy="120" r="5" fill="#795548"/>
      <circle cx="70" cy="120" r="5" fill="#795548"/>
      <circle cx="90" cy="120" r="5" fill="#795548"/>
      <circle cx="110" cy="120" r="5" fill="#795548"/>
      <circle cx="130" cy="120" r="5" fill="#795548"/>
      <circle cx="150" cy="120" r="5" fill="#795548"/>
      <circle cx="60" cy="140" r="5" fill="#795548"/>
      <circle cx="80" cy="140" r="5" fill="#795548"/>
      <circle cx="100" cy="140" r="5" fill="#795548"/>
      <circle cx="120" cy="140" r="5" fill="#795548"/>
      <circle cx="140" cy="140" r="5" fill="#795548"/>
    </svg>