<svg width="200" height="200" xmlns="http://www.w3.org/2000/svg">
      <rect width="200" height="200" fill="#e0e0e0"/>
      <path d="M20,180 L20,80 L60,40 L140,40 L180,80 L180,180 Z" fill="#f5f5f5"/>
      <rect x="40" y="180" width="20" height="-80" fill="#bdbdbd"/>
      <rect x="70" y="180" width="20" height="-100" fill="#bdbdbd"/>
      <rect x="100" y="180" width="20" height="-90" fill="#bdbdbd"/>
      <rect x="130" y="180" width="20" height="-100" fill="#bdbdbd"/>
      <rect x="160" y="180" width="20" height="-80" fill="#bdbdbd"/>
      <path d="M20,80 L60,40 L140,40 L180,80" fill="transparent" stroke="#9e9e9e" stroke-width="3"/>
      <path d="M10,150 L190,150" fill="transparent" stroke="#795548" stroke-width="2"/>
      <rect x="30" y="150" width="10" height="-20" fill="#795548"/>
      <rect x="50" y="150" width="10" height="-20" fill="#795548"/>
      <rect x="70" y="150" width="10" height="-20" fill="#795548"/>
      <rect x="90" y="150" width="10" height="-20" fill="#795548"/>
      <rect x="110" y="150" width="10" height="-20" fill="#795548"/>
      <rect x="130" y="150" width="10" height="-20" fill="#795548"/>
      <rect x="150" y="150" width="10" height="-20" fill="#795548"/>
      <rect x="170" y="150" width="10" height="-20" fill="#795548"/>
      <circle cx="100" cy="110" r="15" fill="#b71c1c"/>
      <text x="100" y="115" font-family="Arial" font-size="10" text-anchor="middle" fill="#f5f5f5">SPQR</text>
    </svg>