<svg width="200" height="200" xmlns="http://www.w3.org/2000/svg">
      <rect width="200" height="200" fill="#424242"/>
      <circle cx="70" cy="70" r="20" fill="#8d6e63"/>
      <rect x="50" y="90" width="40" height="60" fill="#5d4037"/>
      <rect x="45" y="90" width="50" height="20" fill="#8d6e63"/>
      <rect x="50" y="110" width="15" height="40" fill="#8d6e63"/>
      <rect x="75" y="110" width="15" height="40" fill="#8d6e63"/>
      <circle cx="60" cy="65" r="4" fill="white"/>
      <circle cx="80" cy="65" r="4" fill="white"/>
      <circle cx="60" cy="65" r="2" fill="black"/>
      <circle cx="80" cy="65" r="2" fill="black"/>
      <path d="M65,75 Q70,80 75,75" fill="transparent" stroke="#5d4037" stroke-width="2"/>
      
      <circle cx="130" cy="70" r="20" fill="#8d6e63"/>
      <rect x="110" y="90" width="40" height="60" fill="#5d4037"/>
      <rect x="105" y="90" width="50" height="20" fill="#8d6e63"/>
      <rect x="110" y="110" width="15" height="40" fill="#8d6e63"/>
      <rect x="135" y="110" width="15" height="40" fill="#8d6e63"/>
      <circle cx="120" cy="65" r="4" fill="white"/>
      <circle cx="140" cy="65" r="4" fill="white"/>
      <circle cx="120" cy="65" r="2" fill="black"/>
      <circle cx="140" cy="65" r="2" fill="black"/>
      <path d="M125,75 Q130,80 135,75" fill="transparent" stroke="#5d4037" stroke-width="2"/>
      
      <path d="M90,130 L110,130" fill="transparent" stroke="#8d6e63" stroke-width="5"/>
      <circle cx="90" cy="130" r="5" fill="#5d4037"/>
      <circle cx="110" cy="130" r="5" fill="#5d4037"/>
    </svg>